<svg width="48" height="50" viewBox="0 0 48 50" fill="none" xmlns="http://www.w3.org/2000/svg">
<path d="M42.3604 27.0932C42.453 26.3218 42.5147 25.5195 42.5147 24.6863C42.5147 23.8531 42.453 23.0508 42.3296 22.2794L47.5446 18.2061C48.0074 17.8358 48.1309 17.157 47.8531 16.6324L42.9159 8.08476C42.6073 7.52932 41.9593 7.34417 41.4038 7.52932L35.2631 9.99795C33.9671 9.0105 32.6093 8.20819 31.0973 7.59104L30.1716 1.04917C30.079 0.43201 29.5544 0 28.9373 0H19.0627C18.4456 0 17.9519 0.43201 17.8593 1.04917L16.9335 7.59104C15.4215 8.20819 14.0329 9.04136 12.7677 9.99795L6.62702 7.52932C6.07158 7.31331 5.42356 7.52932 5.11499 8.08476L0.177727 16.6324C-0.130852 17.1878 -0.00741981 17.8358 0.486306 18.2061L5.70129 22.2794C5.57785 23.0508 5.48528 23.884 5.48528 24.6863C5.48528 25.4886 5.547 26.3218 5.67043 27.0932L0.455447 31.1664C-0.00742054 31.5367 -0.130852 32.2156 0.146869 32.7402L5.08413 41.2878C5.39271 41.8433 6.04072 42.0284 6.59616 41.8433L12.7369 39.3746C14.0329 40.3621 15.3907 41.1644 16.9027 41.7816L17.8284 48.3234C17.9519 48.9406 18.4456 49.3726 19.0627 49.3726H28.9373C29.5544 49.3726 30.079 48.9406 30.1407 48.3234L31.0665 41.7816C32.5785 41.1644 33.9671 40.3312 35.2323 39.3746L41.373 41.8433C41.9284 42.0593 42.5764 41.8433 42.885 41.2878L47.8223 32.7402C48.1309 32.1848 48.0074 31.5367 47.5137 31.1664L42.3604 27.0932ZM24 33.9437C18.9085 33.9437 14.7426 29.7778 14.7426 24.6863C14.7426 19.5947 18.9085 15.4289 24 15.4289C29.0916 15.4289 33.2574 19.5947 33.2574 24.6863C33.2574 29.7778 29.0916 33.9437 24 33.9437Z" fill="black"/>
</svg>
