<svg width="140" height="76" viewBox="0 0 140 76" fill="none" xmlns="http://www.w3.org/2000/svg">
<path fill-rule="evenodd" clip-rule="evenodd" d="M57.5634 54.0461C54.0339 54.0461 51.1095 53.0145 48.7901 50.9513C46.269 48.4351 45.0084 45.1391 45.0084 41.0629V12.9831C45.0084 8.90702 46.269 5.61094 48.7901 3.09482C51.1095 1.0316 54.0339 0 57.5634 0C61.1938 0 64.1182 1.0316 66.3368 3.09482C68.8579 5.5103 70.1184 8.80637 70.1184 12.9831V17.6631H61.7988V12.9831C61.7988 11.1212 61.4459 9.86316 60.74 9.20897C60.0845 8.6051 59.0257 8.30317 57.5634 8.30317C56.1516 8.30317 55.118 8.6051 54.4625 9.20897C53.7062 9.91348 53.328 11.1715 53.328 12.9831V41.0629C53.328 42.8746 53.7062 44.1326 54.4625 44.8371C55.118 45.441 56.1516 45.7429 57.5634 45.7429C59.0257 45.7429 60.0845 45.441 60.74 44.8371C61.4459 44.1829 61.7988 42.9249 61.7988 41.0629V34.2694H70.1184V41.0629C70.1184 45.2397 68.8579 48.5358 66.3368 50.9513C64.1182 53.0145 61.1938 54.0461 57.5634 54.0461ZM96.5027 0.592606H104.822V53.4535H96.5027V30.4968H88.0319V53.4535H79.7124V0.592606H88.0319V22.19H96.5027V0.592606ZM127.445 54.0461C123.815 54.0461 120.89 53.0145 118.672 50.9513C116.151 48.5358 114.89 45.2397 114.89 41.0629V12.9831C114.89 8.80637 116.151 5.5103 118.672 3.09482C120.89 1.0316 123.815 0 127.445 0C131.076 0 134 1.0316 136.218 3.09482C138.74 5.5103 140 8.80637 140 12.9831V41.0629C140 45.2397 138.74 48.5358 136.218 50.9513C134 53.0145 131.076 54.0461 127.445 54.0461ZM127.504 8.29655C126.103 8.29655 125.077 8.59763 124.426 9.1998C123.675 9.90234 123.3 11.1568 123.3 12.9634V40.9642C123.3 42.7707 123.675 44.0252 124.426 44.7278C125.077 45.3299 126.103 45.631 127.504 45.631C128.956 45.631 129.982 45.3299 130.583 44.7278C131.334 44.0754 131.709 42.8209 131.709 40.9642V12.9634C131.709 11.1067 131.334 9.85215 130.583 9.1998C129.982 8.59763 128.956 8.29655 127.504 8.29655ZM30.074 0.592606H34.8225V53.4535H26.5315V27.0986L19.8233 45.1468H14.9995L8.29126 27.0986V53.4535H0.000244141V0.592606H4.74874L17.4114 29.8926L30.074 0.592606Z" fill="#D0021B"/>
<path d="M3.75946 68.3689H4.35306V75.0455H3.31661V71.7167L2.47804 73.9963H1.87502L1.03644 71.7167V75.0455H0V68.3689H0.593598L2.17653 72.0696L3.75946 68.3689Z" fill="#D0021B"/>
<path d="M8.49875 75.0455V68.3689H7.46231V75.0455H8.49875Z" fill="#D0021B"/>
<path d="M13.1762 75.0455C13.6285 75.0455 13.9897 74.9215 14.2598 74.6735C14.4168 74.5337 14.5393 74.3556 14.6272 74.1394C14.7026 73.9359 14.7403 73.7038 14.7403 73.4431V70.0094C14.7403 69.4753 14.5833 69.062 14.2692 68.7695C13.9865 68.5024 13.6222 68.3689 13.1762 68.3689H11.6121V75.0455H13.1762ZM12.6486 69.4181H13.1762C13.3521 69.4181 13.4809 69.4562 13.5625 69.5325C13.6567 69.6279 13.7039 69.7869 13.7039 70.0094V73.4431C13.7039 73.6657 13.6599 73.8151 13.5719 73.8914C13.4966 73.9614 13.3647 73.9963 13.1762 73.9963H12.6486V69.4181Z" fill="#D0021B"/>
<path d="M17.4852 71.0968H19.1812V72.146H17.4852V71.0968Z" fill="#D0021B"/>
<path d="M23.489 75.1218C23.9412 75.1218 24.3055 74.9915 24.5819 74.7308C24.896 74.4256 25.053 74.0091 25.053 73.4813V72.6229H24.0166V73.4813C24.0166 73.7166 23.9726 73.8755 23.8847 73.9582C23.803 74.0345 23.6711 74.0726 23.489 74.0726C23.3131 74.0726 23.1843 74.0345 23.1026 73.9582C23.0084 73.8692 22.9613 73.7102 22.9613 73.4813V69.9331C22.9613 69.7042 23.0084 69.5452 23.1026 69.4562C23.1843 69.3799 23.3131 69.3418 23.489 69.3418C23.6711 69.3418 23.803 69.3799 23.8847 69.4562C23.9726 69.5389 24.0166 69.6978 24.0166 69.9331V70.5245H25.053V69.9331C25.053 69.4053 24.896 68.9889 24.5819 68.6836C24.3055 68.4229 23.9412 68.2926 23.489 68.2926C23.0493 68.2926 22.6849 68.4229 22.396 68.6836C22.0819 69.0016 21.9249 69.4181 21.9249 69.9331V73.4813C21.9249 73.9963 22.0819 74.4128 22.396 74.7308C22.6849 74.9915 23.0493 75.1218 23.489 75.1218Z" fill="#D0021B"/>
<path d="M29.5343 75.1218C29.9865 75.1218 30.3508 74.9915 30.6272 74.7308C30.9413 74.4256 31.0983 74.0091 31.0983 73.4813V69.9331C31.0983 69.4053 30.9413 68.9889 30.6272 68.6836C30.3508 68.4229 29.9865 68.2926 29.5343 68.2926C29.082 68.2926 28.7177 68.4229 28.4413 68.6836C28.1272 68.9889 27.9702 69.4053 27.9702 69.9331V73.4813C27.9702 74.0091 28.1272 74.4256 28.4413 74.7308C28.7177 74.9915 29.082 75.1218 29.5343 75.1218ZM29.5343 69.3418C29.7164 69.3418 29.8452 69.3799 29.9206 69.4562C30.0148 69.5389 30.0619 69.6978 30.0619 69.9331V73.4813C30.0619 73.7166 30.0148 73.8755 29.9206 73.9582C29.8452 74.0345 29.7164 74.0726 29.5343 74.0726C29.3584 74.0726 29.2296 74.0345 29.1479 73.9582C29.0537 73.8692 29.0066 73.7102 29.0066 73.4813V69.9331C29.0066 69.7042 29.0537 69.5452 29.1479 69.4562C29.2296 69.3799 29.3584 69.3418 29.5343 69.3418Z" fill="#D0021B"/>
<path d="M37.3034 68.3689V75.0455H36.7003L35.1174 71.6595V75.0455H34.081V68.3689H34.684L36.2669 71.7454V68.3689H37.3034Z" fill="#D0021B"/>
<path d="M43.2399 68.3689V69.4181H42.1847V75.0455H41.1482V69.4181H40.0929V68.3689H43.2399Z" fill="#D0021B"/>
<path d="M47.0893 75.0455V68.3689H46.0528V75.0455H47.0893Z" fill="#D0021B"/>
<path d="M53.3874 68.3689V75.0455H52.7843L51.2014 71.6595V75.0455H50.165V68.3689H50.768L52.3509 71.7454V68.3689H53.3874Z" fill="#D0021B"/>
<path d="M59.192 69.4181H57.496V71.0968H58.6644V72.146H57.496V73.9963H59.192V75.0455H56.4596V68.3689H59.192V69.4181Z" fill="#D0021B"/>
<path d="M65.3767 68.3689V75.0455H64.7737L63.1908 71.6595V75.0455H62.1543V68.3689H62.7574L64.3403 71.7454V68.3689H65.3767Z" fill="#D0021B"/>
<path d="M71.3133 68.3689V69.4181H70.258V75.0455H69.2216V69.4181H68.1663V68.3689H71.3133Z" fill="#D0021B"/>
<path d="M76.1139 75.0455L75.9255 73.9868H74.7383L74.5498 75.0455H73.4946L74.8137 68.3689H75.8501L77.1692 75.0455H76.1139ZM74.9173 72.9376H75.7465L75.3319 70.5436L74.9173 72.9376Z" fill="#D0021B"/>
<path d="M82.7659 75.0455V73.9963H81.0699V68.3689H80.0335V75.0455H82.7659Z" fill="#D0021B"/>
<path d="M91.529 68.3689H92.5655V75.0455H91.529V72.146H90.4737V75.0455H89.4373V68.3689H90.4737V71.0968H91.529V68.3689Z" fill="#D0021B"/>
<path d="M98.4082 69.4181H96.7122V71.0968H97.8806V72.146H96.7122V73.9963H98.4082V75.0455H95.6758V68.3689H98.4082V69.4181Z" fill="#D0021B"/>
<path d="M105.168 68.3689H105.761V75.0455H104.725V71.7167L103.886 73.9963H103.283L102.445 71.7167V75.0455H101.408V68.3689H102.002L103.585 72.0696L105.168 68.3689Z" fill="#D0021B"/>
<path d="M111.236 75.0455L111.047 73.9868H109.86L109.671 75.0455H108.616L109.935 68.3689H110.972L112.291 75.0455H111.236ZM110.039 72.9376H110.868L110.454 70.5436L110.039 72.9376Z" fill="#D0021B"/>
<path d="M120.453 75.1218C120.905 75.1218 121.27 74.9915 121.546 74.7308C121.86 74.4256 122.017 74.0091 122.017 73.4813V69.9331C122.017 69.4053 121.86 68.9889 121.546 68.6836C121.27 68.4229 120.905 68.2926 120.453 68.2926C120.001 68.2926 119.636 68.4229 119.36 68.6836C119.046 68.9889 118.889 69.4053 118.889 69.9331V73.4813C118.889 74.0091 119.046 74.4256 119.36 74.7308C119.636 74.9915 120.001 75.1218 120.453 75.1218ZM120.453 69.3418C120.635 69.3418 120.764 69.3799 120.839 69.4562C120.933 69.5389 120.981 69.6978 120.981 69.9331V73.4813C120.981 73.7166 120.933 73.8755 120.839 73.9582C120.764 74.0345 120.635 74.0726 120.453 74.0726C120.277 74.0726 120.148 74.0345 120.067 73.9582C119.972 73.8692 119.925 73.7102 119.925 73.4813V69.9331C119.925 69.7042 119.972 69.5452 120.067 69.4562C120.148 69.3799 120.277 69.3418 120.453 69.3418Z" fill="#D0021B"/>
<path d="M126.074 72.3749H126.601C127.054 72.3749 127.418 72.2445 127.694 71.9838C128.008 71.6913 128.166 71.2748 128.166 70.7343V70.0094C128.166 69.4753 128.008 69.062 127.694 68.7695C127.412 68.5024 127.047 68.3689 126.601 68.3689H125.037V75.0455H126.074V72.3749ZM126.074 69.4181H126.601C126.777 69.4181 126.906 69.4562 126.988 69.5325C127.082 69.6279 127.129 69.7869 127.129 70.0094V70.7343C127.129 70.9632 127.082 71.1222 126.988 71.2112C126.906 71.2875 126.777 71.3257 126.601 71.3257H126.074V69.4181Z" fill="#D0021B"/>
<path d="M133.815 69.4181H132.119V71.0968H133.287V72.146H132.119V73.9963H133.815V75.0455H131.083V68.3689H133.815V69.4181Z" fill="#D0021B"/>
<path d="M140 68.3689V75.0455H139.397L137.814 71.6595V75.0455H136.777V68.3689H137.38L138.963 71.7454V68.3689H140Z" fill="#D0021B"/>
<line y1="60.0839" x2="140" y2="60.0839" stroke="#CFCFCF" stroke-width="2"/>
</svg>
